HIERARCHY
ROOT Hips
{
	OFFSET 0.00000 0.00000 0.00000
	CHANNELS 6 Xposition Yposition Zposition Zrotation Yrotation Xrotation 
	JOINT LHipJoint
	{
		OFFSET 0 0 0
		CHANNELS 3 Zrotation Yrotation Xrotation
		JOINT LeftUpLeg
		{
			OFFSET 1.53794 -1.55850 0.93568
			CHANNELS 3 Zrotation Yrotation Xrotation
			JOINT LeftLeg
			{
				OFFSET 2.28545 -6.27922 0.00000
				CHANNELS 3 Zrotation Yrotation Xrotation
				JOINT LeftFoot
				{
					OFFSET 2.37329 -6.52057 0.00000
					CHANNELS 3 Zrotation Yrotation Xrotation
					JOINT LeftToeBase
					{
						OFFSET 0.14846 -0.40788 2.09160
						CHANNELS 3 Zrotation Yrotation Xrotation
						End Site
						{
							OFFSET 0.00000 -0.00000 1.07536
						}
					}
				}
			}
		}
	}
	JOINT RHipJoint
	{
		OFFSET 0 0 0
		CHANNELS 3 Zrotation Yrotation Xrotation
		JOINT RightUpLeg
		{
			OFFSET -1.78290 -1.55850 0.93568
			CHANNELS 3 Zrotation Yrotation Xrotation
			JOINT RightLeg
			{
				OFFSET -2.24144 -6.15831 0.00000
				CHANNELS 3 Zrotation Yrotation Xrotation
				JOINT RightFoot
				{
					OFFSET -2.35091 -6.45907 0.00000
					CHANNELS 3 Zrotation Yrotation Xrotation
					JOINT RightToeBase
					{
						OFFSET -0.14428 -0.39641 2.07944
						CHANNELS 3 Zrotation Yrotation Xrotation
						End Site
						{
							OFFSET -0.00000 -0.00000 1.06864
						}
					}
				}
			}
		}
	}
	JOINT LowerBack
	{
		OFFSET 0 0 0
		CHANNELS 3 Zrotation Yrotation Xrotation
		JOINT Spine
		{
			OFFSET -0.08841 2.11430 -0.15818
			CHANNELS 3 Zrotation Yrotation Xrotation
			JOINT Spine1
			{
				OFFSET -0.00033 2.12605 -0.08097
				CHANNELS 3 Zrotation Yrotation Xrotation
				JOINT Neck
				{
					OFFSET 0 0 0
					CHANNELS 3 Zrotation Yrotation Xrotation
					JOINT Neck1
					{
						OFFSET 0.04431 1.59447 0.43193
						CHANNELS 3 Zrotation Yrotation Xrotation
						JOINT Head
						{
							OFFSET 0.00455 1.62017 -0.58852
							CHANNELS 3 Zrotation Yrotation Xrotation
							End Site
							{
								OFFSET -0.00920 1.72955 -0.25850
							}
						}
					}
				}
				JOINT LeftShoulder
				{
					OFFSET 0 0 0
					CHANNELS 3 Zrotation Yrotation Xrotation
					JOINT LeftArm
					{
						OFFSET 2.86490 1.49927 -0.33774
						CHANNELS 3 Zrotation Yrotation Xrotation
						JOINT LeftForeArm
						{
							OFFSET 4.87408 -0.00000 0.00000
							CHANNELS 3 Zrotation Yrotation Xrotation
							JOINT LeftHand
							{
								OFFSET 2.76729 -0.00000 0.00000
								CHANNELS 3 Zrotation Yrotation Xrotation
								JOINT LeftFingerBase
								{
									OFFSET 0 0 0
									CHANNELS 3 Zrotation Yrotation Xrotation
									JOINT LeftHandIndex1
									{
										OFFSET 0.98922 -0.00000 0.00000
										CHANNELS 3 Zrotation Yrotation Xrotation
										End Site
										{
											OFFSET 0.79753 -0.00000 0.00000
										}
									}
								}
								JOINT LThumb
								{
									OFFSET 0 0 0
									CHANNELS 3 Zrotation Yrotation Xrotation
									End Site
									{
										OFFSET 0.80972 -0.00000 0.80972
									}
								}
							}
						}
					}
				}
				JOINT RightShoulder
				{
					OFFSET 0 0 0
					CHANNELS 3 Zrotation Yrotation Xrotation
					JOINT RightArm
					{
						OFFSET -2.94414 1.45463 -0.25291
						CHANNELS 3 Zrotation Yrotation Xrotation
						JOINT RightForeArm
						{
							OFFSET -4.71404 -0.00000 0.00000
							CHANNELS 3 Zrotation Yrotation Xrotation
							JOINT RightHand
							{
								OFFSET -2.83468 -0.00000 0.00000
								CHANNELS 3 Zrotation Yrotation Xrotation
								JOINT RightFingerBase
								{
									OFFSET 0 0 0
									CHANNELS 3 Zrotation Yrotation Xrotation
									JOINT RightHandIndex1
									{
										OFFSET -0.86820 -0.00000 0.00000
										CHANNELS 3 Zrotation Yrotation Xrotation
										End Site
										{
											OFFSET -0.69996 -0.00000 0.00000
										}
									}
								}
								JOINT RThumb
								{
									OFFSET 0 0 0
									CHANNELS 3 Zrotation Yrotation Xrotation
									End Site
									{
										OFFSET -0.71065 -0.00000 0.71065
									}
								}
							}
						}
					}
				}
			}
		}
	}
}
MOTION
Frames: 13
Frame Time: .0083333
1.6191 20.2620 1.2859 180.0800 19.4037 -167.5770 0.0000 0.0000 0.0000 12.1992 -17.3925 -58.7422 7.7356 15.9213 51.6046 2.0167 11.8713 25.6269 0.0935 1.9726 5.4298 0.0000 0.0000 0.0000 3.7498 -3.2006 13.4562 -7.2188 -15.5134 49.6969 -1.7289 -18.3139 25.1447 -0.0463 1.3884 -3.8182 -2.3287 10.1387 -0.7283 -5.1240 13.9073 1.1906 -3.5472 7.0589 2.3759 -1.5824 1.0313 -28.7282 4.1961 -6.0918 46.1293 0.2904 -3.3119 27.9181 -0.0000 -0.0000 0.0000 -34.5852 36.4087 62.2709 63.3046 -57.1281 -37.1040 -0.0000 -0.0000 12.2291 8.0083 4.4085 0.6196 -7.1250 0.0000 -0.0000 -15.2384 34.1121 4.1966 -0.0000 -0.0000 0.0000 62.9406 15.8431 47.1754 -89.7934 59.9998 -59.8211 0.0000 0.0000 6.2447 -1.8873 0.1471 -0.0048 7.1250 -0.0000 -0.0000 19.1288 -29.5243 7.6076
1.6029 20.2656 0.9185 180.4200 19.7285 -167.7210 0.0000 0.0000 0.0000 11.5390 -17.4558 -56.3661 6.6580 15.0370 47.5686 2.2001 12.1964 26.7774 0.0969 2.0070 5.5250 0.0000 0.0000 0.0000 3.1425 -3.0291 13.4030 -8.0029 -16.1214 52.5732 -1.6244 -17.3281 24.2367 -0.0479 1.4119 -3.8830 -2.1131 10.2824 -1.1667 -4.8398 14.0831 1.2167 -3.2754 7.1310 2.6308 -1.6153 1.1022 -28.4608 4.1740 -6.1110 46.3122 0.2636 -3.3682 28.0297 -0.0000 -0.0000 0.0000 -34.7132 37.0598 62.9271 64.2055 -57.3302 -37.8615 -0.0000 -0.0000 12.5062 8.0366 4.0942 0.5776 -7.1250 0.0000 -0.0000 -15.1571 33.8072 4.2889 -0.0000 -0.0000 0.0000 63.5123 14.9858 47.2389 -88.6884 59.9935 -58.8641 0.0000 0.0000 6.7469 -1.7488 0.3546 -0.0108 7.1250 -0.0000 -0.0000 19.1940 -29.3243 7.7338
1.5857 20.2561 0.5498 180.8030 20.0632 -167.8570 0.0000 0.0000 0.0000 10.9293 -17.4953 -53.9318 5.6542 14.0847 43.5777 2.3926 12.5856 27.9453 0.1003 2.0419 5.6215 0.0000 0.0000 0.0000 2.5624 -2.8213 13.3781 -8.7983 -16.6762 55.3900 -1.5126 -16.4461 23.2959 -0.0526 1.4797 -4.0698 -1.8615 10.4192 -1.5976 -4.5364 14.2433 1.2301 -3.0046 7.1955 2.8706 -1.6005 1.1832 -28.2043 4.0977 -6.1044 46.4910 0.2005 -3.4111 28.1274 -0.0000 -0.0000 0.0000 -34.8741 37.7651 63.5156 65.1424 -57.5314 -38.6511 -0.0000 -0.0000 12.8728 8.0984 3.7346 0.5310 -7.1250 0.0000 -0.0000 -15.0423 33.4594 4.3856 -0.0000 -0.0000 0.0000 64.0898 14.0286 47.2495 -87.6668 59.9794 -57.9795 0.0000 0.0000 7.2101 -1.5826 0.5713 -0.0158 7.1250 -0.0000 -0.0000 19.2781 -29.1152 7.8738
1.5674 20.2329 0.1801 181.2360 20.4050 -167.9730 0.0000 0.0000 0.0000 10.3883 -17.5171 -51.4583 4.7303 13.0735 39.6441 2.6050 13.0436 29.1885 0.1042 2.0810 5.7296 0.0000 0.0000 0.0000 2.0153 -2.5749 13.3592 -9.6046 -17.1814 58.1585 -1.3969 -15.6481 22.3295 -0.0592 1.5694 -4.3169 -1.5627 10.5438 -2.0314 -4.2151 14.3805 1.2251 -2.7408 7.2492 3.0980 -1.5900 1.2668 -27.9492 4.0071 -6.0795 46.6652 0.1341 -3.4509 28.2163 0.0000 0.0000 0.0000 -35.0659 38.5545 64.0314 66.1654 -57.7407 -39.5152 -0.0000 -0.0000 13.2353 8.1628 3.3704 0.4832 -7.1250 0.0000 -0.0000 -14.9262 33.1067 4.4815 0.0000 0.0000 0.0000 64.6746 12.9875 47.2196 -86.7053 59.9589 -57.1471 0.0000 0.0000 7.5910 -1.3944 0.7539 -0.0183 7.1250 -0.0000 -0.0000 19.3847 -28.9379 8.0095
1.5481 20.1958 -0.1906 181.7150 20.7628 -168.0620 0.0000 0.0000 0.0000 9.9261 -17.5371 -48.9502 3.8908 12.0137 35.7805 2.8376 13.7135 30.5150 0.1093 2.1313 5.8688 0.0000 0.0000 0.0000 1.4887 -2.2875 13.3291 -10.4218 -17.6403 60.8892 -1.2803 -14.9027 21.3423 -0.0695 1.7008 -4.6794 -1.2123 10.6569 -2.4800 -3.8861 14.4978 1.2092 -2.4927 7.2945 3.3317 -1.4993 1.3794 -27.7370 3.8498 -6.0317 46.8656 0.0128 -3.4751 28.3518 -0.0000 0.0000 0.0000 -35.2842 39.4127 64.4628 67.2742 -57.9557 -40.4540 -0.0000 -0.0000 13.5778 8.2583 3.0111 0.4368 -7.1250 0.0000 -0.0000 -14.7880 32.7595 4.5659 -0.0000 0.0000 0.0000 65.2726 11.8979 47.1484 -85.7670 59.9322 -56.3349 0.0000 0.0000 7.8729 -1.2042 0.9073 -0.0191 7.1250 -0.0000 -0.0000 19.4979 -28.7882 8.1357
1.5271 20.1446 -0.5621 182.2210 21.1364 -168.1300 0.0000 0.0000 0.0000 9.5359 -17.5872 -46.4082 3.1403 10.9188 32.0064 3.0902 14.6935 31.9266 0.1171 2.2060 6.0753 0.0000 0.0000 0.0000 0.9524 -1.9633 13.2822 -11.2491 -18.0549 63.5880 -1.1621 -14.1838 20.3154 -0.0820 1.8474 -5.0841 -0.8125 10.7586 -2.9290 -3.5614 14.5954 1.1814 -2.2740 7.3323 3.5658 -1.3814 1.4966 -27.5552 3.6715 -5.9582 47.0431 -0.1193 -3.4835 28.4658 0.0000 -0.0000 0.0000 -35.5132 40.3304 64.8237 68.4437 -58.1693 -41.4464 -0.0000 -0.0000 13.8690 8.3532 2.6664 0.3914 -7.1250 0.0000 -0.0000 -14.6546 32.4262 4.6442 0.0000 -0.0000 0.0000 65.8855 10.7674 47.0226 -84.8401 59.8992 -55.5329 0.0000 0.0000 8.0704 -1.0271 1.0088 -0.0181 7.1250 -0.0000 -0.0000 19.6106 -28.6880 8.2381
1.5044 20.0799 -0.9348 182.7330 21.5331 -168.1740 0.0000 0.0000 0.0000 9.2180 -17.7084 -43.8354 2.4805 9.8024 28.3391 3.3492 16.1545 33.3790 0.1308 2.3316 6.4229 0.0000 0.0000 0.0000 0.3749 -1.5974 13.1951 -12.0855 -18.4266 66.2596 -1.0420 -13.4721 19.2349 -0.0980 2.0190 -5.5581 -0.3843 10.8474 -3.4021 -3.2427 14.6728 1.1489 -2.0708 7.3619 3.8165 -1.2556 1.6428 -27.3620 3.5133 -5.8540 47.2209 -0.2318 -3.4804 28.5766 -0.0000 0.0000 0.0000 -35.7666 41.2982 65.1046 69.6843 -58.3816 -42.5017 -0.0000 -0.0000 14.1003 8.4194 2.3536 0.3483 -7.1250 0.0000 -0.0000 -14.5506 32.1225 4.7194 -0.0000 0.0000 0.0000 66.5057 9.6129 46.8290 -83.9035 59.8591 -54.7228 0.0000 0.0000 8.2021 -0.8868 1.0782 -0.0167 7.1250 -0.0000 -0.0000 19.7017 -28.6191 8.3153
1.4798 20.0013 -1.3082 183.2490 21.9422 -168.2000 0.0000 0.0000 0.0000 8.9813 -17.9453 -41.2276 1.9118 8.6798 24.7988 3.6010 18.1131 34.8377 0.1499 2.4947 6.8750 0.0000 0.0000 0.0000 -0.2432 -1.1921 13.0869 -12.9273 -18.7557 68.8995 -0.9176 -12.7789 18.0748 -0.1191 2.2250 -6.1278 0.0828 10.9231 -3.8784 -2.9352 14.7287 1.1090 -1.8979 7.3833 4.0733 -1.1469 1.8261 -27.1301 3.4169 -5.7531 47.4316 -0.3069 -3.4849 28.7317 0.0000 -0.0000 0.0000 -36.0339 42.3080 65.3181 70.9648 -58.5856 -43.5933 -0.0000 -0.0000 14.2871 8.4699 2.0750 0.3089 -7.1250 0.0000 -0.0000 -14.4656 31.8515 4.7878 0.0000 -0.0000 0.0000 67.1331 8.4470 46.5649 -82.9286 59.8102 -53.8799 0.0000 0.0000 8.3022 -0.8107 1.1130 -0.0157 7.1250 -0.0000 -0.0000 19.7516 -28.5844 8.3563
1.4536 19.9091 -1.6821 183.7460 22.3617 -168.2210 0.0000 0.0000 0.0000 8.8209 -18.3555 -38.5740 1.4313 7.5646 21.3991 3.8163 20.5903 36.2213 0.1777 2.7157 7.4882 0.0000 0.0000 0.0000 -0.9109 -0.7393 12.9628 -13.7714 -19.0432 71.5052 -0.7945 -12.0870 16.8616 -0.1418 2.4272 -6.6877 0.5543 10.9809 -4.3418 -2.6330 14.7573 1.0624 -1.7374 7.3929 4.3179 -1.0594 2.0290 -26.8855 3.3585 -5.6314 47.6401 -0.3479 -3.4861 28.8858 -0.0000 0.0000 0.0000 -36.3312 43.3534 65.4724 72.2678 -58.7779 -44.7064 -0.0000 -0.0000 14.4394 8.4925 1.8404 0.2748 -7.1250 0.0000 -0.0000 -14.4105 31.6225 4.8505 -0.0000 0.0000 0.0000 67.7534 7.2610 46.2153 -81.9294 59.7524 -53.0165 0.0000 0.0000 8.4733 -0.7734 1.1398 -0.0154 7.1250 -0.0000 -0.0000 19.7742 -28.5582 8.3802
1.4257 19.8034 -2.0559 184.2220 22.7778 -168.2490 0.0000 0.0000 0.0000 8.7402 -18.9996 -35.8648 1.0349 6.4703 18.1553 3.9624 23.5316 37.4499 0.2123 2.9665 8.1855 0.0000 0.0000 0.0000 -1.6190 -0.2417 12.8330 -14.6161 -19.2904 74.0776 -0.6732 -11.3747 15.5818 -0.1702 2.6581 -7.3281 1.0314 11.0183 -4.7739 -2.3360 14.7550 1.0023 -1.5955 7.3893 4.5325 -0.9931 2.2529 -26.6027 3.3358 -5.5068 47.8653 -0.3638 -3.4946 29.0544 0.0000 -0.0000 0.0000 -36.6460 44.4387 65.5834 73.6059 -58.9597 -45.8519 -0.0000 -0.0000 14.5557 8.4977 1.6430 0.2454 -7.1250 0.0000 -0.0000 -14.3752 31.4293 4.9070 0.0000 -0.0000 0.0000 68.3689 6.0213 45.7719 -80.9840 59.6906 -52.2000 0.0000 0.0000 8.6161 -0.7595 1.1639 -0.0154 7.1250 -0.0000 -0.0000 19.7800 -28.5352 8.3945
1.3965 19.6845 -2.4294 184.6550 23.1830 -168.3030 0.0000 0.0000 0.0000 8.7060 -19.9163 -33.0903 0.7163 5.4084 15.0771 3.9965 26.8952 38.4264 0.2534 3.2387 8.9439 0.0000 0.0000 0.0000 -2.3805 0.2961 12.7149 -15.4597 -19.4984 76.6177 -0.5570 -10.6196 14.2447 -0.2033 2.9036 -8.0104 1.4843 11.0242 -5.1535 -2.0397 14.7102 0.9418 -1.4583 7.3659 4.7099 -0.9234 2.4912 -26.3079 3.3005 -5.3522 48.0876 -0.3802 -3.4961 29.2094 -0.0000 0.0000 0.0000 -37.0340 45.5415 65.6030 74.8954 -59.1201 -46.9577 -0.0000 -0.0000 14.7097 8.5157 1.4394 0.2155 -7.1250 0.0000 -0.0000 -14.3295 31.2304 4.9612 -0.0000 0.0000 0.0000 68.9738 4.7417 45.2232 -80.1263 59.6284 -51.4598 0.0000 0.0000 8.8009 -0.7177 1.2001 -0.0150 7.1250 -0.0000 -0.0000 19.8042 -28.5001 8.4237
1.3663 19.5520 -2.8013 185.0400 23.5694 -168.3940 0.0000 0.0000 0.0000 8.6577 -21.0546 -30.2769 0.4694 4.3942 12.1885 3.9029 30.5003 39.1400 0.3006 3.5250 9.7440 0.0000 0.0000 0.0000 -3.1739 0.8869 12.6204 -16.3033 -19.6692 79.1341 -0.4453 -9.8543 12.8394 -0.2354 3.1224 -8.6198 1.8947 10.9986 -5.4548 -1.7428 14.6249 0.8618 -1.3239 7.3236 4.8107 -0.8653 2.7406 -25.9975 3.2589 -5.1864 48.3239 -0.3985 -3.5026 29.3807 0.0000 0.0000 0.0000 -37.4622 46.6757 65.5734 76.1499 -59.2626 -48.0352 -0.0000 -0.0000 14.8749 8.5091 1.2324 0.1844 -7.1250 0.0000 -0.0000 -14.3029 31.0275 5.0234 0.0000 0.0000 0.0000 69.5672 3.3594 44.5802 -79.4229 59.5730 -50.8531 0.0000 0.0000 8.9869 -0.6813 1.2420 -0.0148 7.1250 -0.0000 -0.0000 19.8234 -28.4598 8.4532
1.3354 19.4056 -3.1714 185.3840 23.9136 -168.5120 0.0000 0.0000 0.0000 8.5297 -22.2977 -27.4935 0.2868 3.4440 9.5174 3.6719 34.2389 39.6040 0.3540 3.8226 10.5782 0.0000 0.0000 0.0000 -3.9801 1.5116 12.5359 -17.1485 -19.8039 81.6364 -0.3412 -9.0939 11.3860 -0.2680 3.3300 -9.1988 2.2788 10.9365 -5.6845 -1.4531 14.4940 0.7658 -1.2071 7.2601 4.8480 -0.7956 2.9965 -25.7005 3.2016 -5.0219 48.5691 -0.4337 -3.5118 29.5794 0.0000 0.0000 0.0000 -37.9327 47.8088 65.4728 77.3728 -59.3889 -49.0870 -0.0000 -0.0000 15.0427 8.4941 1.0029 0.1498 -7.1250 0.0000 -0.0000 -14.2796 30.8022 5.0945 0.0000 0.0000 0.0000 70.1663 1.8807 43.8312 -78.8939 59.5288 -50.3971 0.0000 0.0000 9.2372 -0.6516 1.2738 -0.0145 7.1250 -0.0000 -0.0000 19.8395 -28.4291 8.4763
